<?xml version="1.0" encoding="UTF-8" standalone="no"?>
<!-- Created with Inkscape (http://www.inkscape.org/) -->

<svg
   xmlns:dc="http://purl.org/dc/elements/1.1/"
   xmlns:cc="http://creativecommons.org/ns#"
   xmlns:rdf="http://www.w3.org/1999/02/22-rdf-syntax-ns#"
   xmlns:svg="http://www.w3.org/2000/svg"
   xmlns="http://www.w3.org/2000/svg"
   xmlns:sodipodi="http://sodipodi.sourceforge.net/DTD/sodipodi-0.dtd"
   xmlns:inkscape="http://www.inkscape.org/namespaces/inkscape"
   version="1.1"
   id="svg4617"
   width="1729.3333"
   height="398.66666"
   viewBox="0 0 1729.3333 398.66666"
   sodipodi:docname="logo.svg"
   inkscape:version="0.92.3 (2405546, 2018-03-11)">
  <metadata
     id="metadata4623">
    <rdf:RDF>
      <cc:Work
         rdf:about="">
        <dc:format>image/svg+xml</dc:format>
        <dc:type
           rdf:resource="http://purl.org/dc/dcmitype/StillImage" />
        <dc:title></dc:title>
      </cc:Work>
    </rdf:RDF>
  </metadata>
  <defs
     id="defs4621" />
  <sodipodi:namedview
     pagecolor="#ffffff"
     bordercolor="#666666"
     borderopacity="1"
     objecttolerance="10"
     gridtolerance="10"
     guidetolerance="10"
     inkscape:pageopacity="0"
     inkscape:pageshadow="2"
     inkscape:window-width="1366"
     inkscape:window-height="649"
     id="namedview4619"
     showgrid="false"
     inkscape:zoom="2.3453921"
     inkscape:cx="1246.7591"
     inkscape:cy="64.938874"
     inkscape:window-x="0"
     inkscape:window-y="0"
     inkscape:window-maximized="0"
     inkscape:current-layer="svg4617" />
  <path
     style="fill:#ffffff;stroke-width:1.33333325;fill-opacity:1"
     d="M 0.93009322,397.81898 C 0.41854195,397.30742 0,380.18889 0,359.77777 v -37.11111 h 16.020764 16.020765 l -0.354099,37.66667 -0.354097,37.66666 -14.736573,0.37454 c -8.1051156,0.206 -15.1551155,-0.044 -15.66666678,-0.55555 z M 69.429291,380.24078 C 50.782068,370.20834 35.333605,361.39999 35.099373,360.66666 34.865141,359.93333 50.263491,351.04855 69.317929,340.9227 l 34.644431,-18.41061 10.68549,5.5592 c 5.87701,3.05756 10.68548,6.03882 10.68548,6.62505 0,0.58623 -10.52835,6.60473 -23.39633,13.37448 l -23.396323,12.30861 9.062995,4.88938 c 4.984646,2.68916 15.512988,8.33644 23.396328,12.54952 7.88333,4.21308 14.32491,8.07748 14.31462,8.58757 -0.0168,0.83428 -20.4732,12.39103 -21.53871,12.16821 -0.24342,-0.0509 -15.699397,-8.3009 -34.346619,-18.33333 z m 120.834129,17.5782 c -1.36784,-1.36784 -1.13578,-75.15232 0.23635,-75.15232 0.64155,0 15.46649,6.00841 32.94435,13.35204 l 31.77789,13.35203 30.18484,-12.64887 c 16.60165,-6.95688 31.1767,-13.02949 32.38898,-13.49469 2.01834,-0.77451 2.20416,2.36985 2.20416,37.29684 v 38.14265 h -15.33333 -15.33333 v -20 c 0,-15.37219 -0.39534,-20 -1.70848,-20 -0.93967,0 -8.58967,2.90551 -17,6.45669 l -15.29152,6.4567 -16.96572,-7.03972 -16.96572,-7.03971 -0.36761,20.24968 -0.36762,20.24969 -14.73657,0.37454 c -8.10512,0.206 -15.15512,-0.044 -15.66667,-0.55555 z m 194.62547,-0.0412 c -0.4889,-0.48889 -0.8889,-17.58889 -0.8889,-38.00001 v -37.11111 h 39.15135 c 21.53324,0 42.38324,0.59885 46.33333,1.33079 15.51756,2.87532 27.84865,12.43926 27.84865,21.59926 0,4.65554 -3.14702,11.12676 -6.25762,12.86754 -2.01311,1.1266 -1.79644,1.78878 1.99997,6.11266 11.48443,13.08004 -1.05972,28.55052 -26.49645,32.67763 -9.34095,1.51556 -80.24387,1.96971 -81.69033,0.52323 z m 77.86542,-19.15801 c 1.41845,-0.75915 2.57901,-2.46284 2.57901,-3.786 0,-4.36072 -5.81477,-5.50044 -28.06273,-5.50044 h -21.2706 v 5.33333 5.33333 h 22.08765 c 12.67579,0 23.18662,-0.58814 24.66667,-1.38024 z m 0.37741,-29.11635 c 3.53492,-2.93816 2.6719,-6.41193 -1.99736,-8.03964 -2.34329,-0.81689 -13.2444,-1.46379 -24.66666,-1.46379 h -20.46771 v 6.11239 6.11239 l 22.46507,-0.44572 c 16.54613,-0.32828 23.04513,-0.92786 24.66666,-2.27564 z m 192.46503,48.31557 c -1.36784,-1.36785 -1.13579,-75.15233 0.23634,-75.15233 0.64155,0 15.4665,6.00841 32.94435,13.35204 l 31.77789,13.35203 30.18484,-12.64887 c 16.60166,-6.95688 31.17671,-13.02949 32.38899,-13.49469 2.01833,-0.77451 2.20416,2.36985 2.20416,37.29684 v 38.14265 h -15.33333 -15.33334 v -20 c 0,-15.37219 -0.39533,-20 -1.70848,-20 -0.93966,0 -8.58966,2.90551 -17,6.45669 l -15.29152,6.4567 -16.96572,-7.03972 -16.96572,-7.03971 -0.36761,20.24968 -0.36761,20.24969 -14.73658,0.37454 c -8.10512,0.206 -15.15512,-0.044 -15.66666,-0.55555 z m 246.81682,-0.45934 c -22.46024,-2.82967 -43.21921,-12.92551 -50.19237,-24.4104 -11.29502,-18.603 4.00456,-38.0357 37.11212,-47.13778 12.29232,-3.37946 46.41408,-3.37308 58.66666,0.0107 16.96095,4.68445 33.22371,14.49865 37.61179,22.69785 5.37326,10.04003 3.40661,21.19815 -5.26454,29.8693 -6.71665,6.71666 -21.31461,13.97869 -33.92185,16.87506 -10.8576,2.49442 -32.61926,3.53028 -44.01181,2.09499 z m 39.92945,-21.2641 c 7.86366,-3.47646 14.99284,-10.68017 14.98531,-15.14194 -0.0279,-16.5304 -35.45119,-26.25432 -60.96157,-16.73434 -23.31051,8.69903 -21.22226,25.6904 4.17406,33.96284 3.57179,1.16346 10.5298,1.64584 20.12583,1.39531 11.88636,-0.31033 15.99547,-0.97037 21.67637,-3.48187 z m 139.92038,21.72344 c -0.5115,-0.51157 -0.9301,-13.7301 -0.9301,-29.37456 v -28.44444 h -20 -20 v -8.66666 -8.66667 H 1096.6666 1152 v 8.66667 8.66666 h -19.3074 -19.3073 l -0.3593,29 -0.3594,29 -14.7365,0.37454 c -8.1051,0.206 -15.1551,-0.044 -15.6667,-0.55555 z m 176.1502,-0.45934 c -22.4603,-2.82967 -43.2193,-12.92551 -50.1924,-24.4104 -11.295,-18.603 4.0045,-38.0357 37.1121,-47.13778 12.2923,-3.37946 46.4141,-3.37308 58.6667,0.0107 16.9609,4.68445 33.2237,14.49865 37.6117,22.69785 5.3733,10.04003 3.4067,21.19815 -5.2645,29.8693 -6.7166,6.71666 -21.3146,13.97869 -33.9218,16.87506 -10.8576,2.49442 -32.6193,3.53028 -44.0118,2.09499 z m 39.9294,-21.2641 c 7.8637,-3.47646 14.9929,-10.68017 14.9853,-15.14194 -0.028,-16.5304 -35.4512,-26.25432 -60.9616,-16.73434 -23.3105,8.69903 -21.2222,25.6904 4.1741,33.96284 3.5718,1.16346 10.5298,1.64584 20.1258,1.39531 11.8864,-0.31033 15.9955,-0.97037 21.6764,-3.48187 z m 110.5871,21.72344 C 1408.4185,397.30742 1408,380.18889 1408,359.77777 v -37.11111 h 39.1513 c 42.5019,0 49.7548,0.75796 60.812,6.35516 17.4103,8.81316 17.8599,23.9836 0.9791,33.04157 l -7.468,4.00727 17.521,9.40615 c 9.6366,5.17338 17.6958,9.95749 17.9091,10.63133 0.2135,0.67385 -4.3237,3.75901 -10.0827,6.85592 l -10.4708,5.63075 -36.3448,-19.4042 c -19.9896,-10.67231 -37.1522,-19.71404 -38.139,-20.09276 -1.4443,-0.55418 -1.8666,3.175 -2.1642,19.10678 l -0.3697,19.79536 -14.7365,0.37454 c -8.1052,0.206 -15.1552,-0.044 -15.6667,-0.55555 z m 78.2016,-48.31557 c 3.5349,-2.93816 2.6719,-6.41193 -1.9973,-8.03964 -2.3434,-0.81688 -13.2444,-1.46377 -24.6667,-1.46377 H 1440 v 6.11238 6.11239 l 22.465,-0.44572 c 16.5462,-0.32828 23.0451,-0.92785 24.6667,-2.27564 z m 94.7507,47.33765 c -0.3854,-1.00408 -0.5164,-5.05408 -0.2915,-9 l 0.4091,-7.17441 36.2881,-0.66667 c 32.2328,-0.59216 36.5485,-0.92742 38.6191,-3 2.2189,-2.2213 2.2189,-2.44536 -7e-4,-4.66666 -1.9741,-1.97568 -5.952,-2.46038 -25.9523,-3.16215 -26.4938,-0.9296 -34.0422,-2.60541 -43.2288,-9.59715 -13.9422,-10.6113 -9.3761,-25.1241 10.3982,-33.04862 7.678,-3.07696 8.9008,-3.15692 48.543,-3.17428 l 40.6667,-0.0179 0.3969,8.33333 0.397,8.33334 h -34.1064 c -35.4974,0 -43.3542,1.06652 -43.3542,5.88505 0,4.212 5.6954,5.39541 30,6.23359 27.674,0.95436 33.7347,2.55162 42.9507,11.31946 5.1037,4.85564 5.716,6.09015 5.716,11.52567 0,7.584 -4.5024,12.9228 -14.8903,17.65644 -10.8134,4.92757 -21.3893,6.0254 -58.1516,6.03639 -27.3088,0.008 -33.8414,-0.33654 -34.409,-1.81554 z M 944.66665,297.77229 C 867.38636,295.18056 758.66727,287.65172 667.33332,278.56684 579.22295,269.80261 524.20212,262.78138 437.99999,249.30153 397.62842,242.98842 370.04379,239.47158 337.33333,236.46728 306.19313,233.60718 236.14324,233.2111 212,235.7586 c -39.71984,4.19109 -93.05737,15.35025 -125.232239,26.20081 -7.644397,2.57797 -14.122164,4.46396 -14.395036,4.19109 -0.992733,-0.99273 27.306326,-18.45348 40.293935,-24.86168 39.5651,-19.52176 108.23768,-30.61238 189.87444,-30.66473 57.31624,-0.0368 85.28789,2.37149 194.47128,16.74328 219.81891,28.93469 301.45108,34.96044 454.94179,33.58188 96.69423,-0.86845 145.36073,-3.92227 218.71243,-13.72424 149.0017,-19.91103 288.5304,-60.27913 358,-103.57568 24.225,-15.09805 38.2011,-30.0014 42.6562,-45.486294 1.0808,-3.756338 2.5741,-14.966936 3.3185,-24.912441 0.7444,-9.945505 2.2732,-21.179448 3.3972,-24.964317 2.5173,-8.476811 14.9144,-24.489118 24.2865,-31.368888 13.5682,-9.9598685 35.9412,-17.657745 48.3904,-16.6495425 l 4.9246,0.3988192 -8.486,14.6304033 c -9.7023,16.727648 -16.4874,32.169344 -16.4874,37.522606 0,14.214831 19.5912,30.138064 37.3779,30.37972 6.1016,0.08289 8.5901,-0.598409 13.1092,-3.588984 9.2548,-6.12452 19.8381,-22.381882 28.7692,-44.193247 2.594,-6.335193 3.5132,-5.704107 10.5741,7.259916 9.5267,17.491183 11.0083,34.057312 4.8167,53.854701 -5.7983,18.539658 -20.6104,27.896078 -59.3137,37.466748 l -24,5.93479 -48.6667,24.24644 c -100.5255,50.08322 -125.1895,61.28116 -165.4051,75.09678 -77.2408,26.53528 -191.0054,46.72398 -311.9282,55.35488 -46.7943,3.33996 -123.47925,4.74573 -171.33335,3.14087 z M 17.881344,257.20933 C 32.202206,240.10768 63.935787,219.89986 97.204351,206.69677 142.289,188.80429 223.60517,172.65801 315.33333,163.38469 c 11,-1.11205 43.4,-4.13321 72,-6.71369 94.25191,-8.50403 124.25911,-13.69212 163.18841,-28.21449 7.04637,-2.62861 31.11158,-12.89308 53.47825,-22.80993 51.21918,-22.709369 82.9195,-35.457921 110.03854,-44.252929 71.35341,-23.140705 142.06367,-31.604285 223.29479,-26.727002 85.85578,5.154956 167.68618,19.359321 307.24058,53.331732 36.969,8.999549 34.7101,9.092419 38.6268,-1.588046 4.8763,-13.296931 10.8437,-17.137691 31.4898,-20.267445 23.5068,-3.563395 44.152,-4.904323 88.3851,-5.740679 l 42.4088,-0.801865 -0.8438,3.866493 c -6.357,29.130846 -14.5548,38.620771 -36.6406,42.416091 -4.6224,0.79433 -4.6686,0.86986 -4.87,7.97281 l -0.2032,7.17088 4.8698,0.80535 c 6.723,1.11177 43.8975,0.86575 56.87,-0.37637 5.8667,-0.56174 10.876,-0.85965 11.132,-0.66204 0.9468,0.73112 -30.2758,23.14552 -44.3556,31.84244 -45.0664,27.83684 -86.7405,44.56069 -141.443,56.76121 -36.8312,8.21459 -93.5838,16.52288 -132.3337,19.37297 l -12.3336,0.90715 6.6193,-13.85699 c 7.5689,-15.84472 15.2327,-38.25366 17.4632,-51.06229 2.4183,-13.88656 1.1946,-29.32824 -3.0468,-38.44905 -6.8246,-14.67573 -23.608,-27.770379 -48.4131,-37.772604 C 1087.9061,76.419577 1021.8209,64.10567 964.36706,59.91772 936.40261,57.879324 874.49601,58.952424 851.99998,61.865512 798.78662,68.756294 730.52277,87.595888 663.33332,113.93412 c -26.78716,10.50055 -62,26.01309 -62,27.31326 0,1.01311 20.78428,9.95659 71.62312,30.81947 18.49272,7.58891 33.42357,13.99757 33.17965,14.24148 -0.2439,0.24391 -12.0743,-0.76776 -26.28978,-2.24817 -72.04156,-7.50242 -114.64427,-9.76302 -183.84632,-9.75531 -90.11876,0.0107 -145.18046,4.00323 -236.66666,17.16349 -44.43625,6.39215 -60.32576,9.17352 -88,15.40395 -49.61502,11.17004 -105.449139,29.95129 -142.724593,48.00912 -6.568139,3.18189 -12.524671,6.02945 -13.236739,6.32792 -0.712066,0.29847 0.417139,-1.50153 2.509346,-4 z M 1368.7829,122.00971 c 1.3115,-2.00164 1.8599,-4.58979 1.3788,-6.50693 -0.7947,-3.16615 -0.844,-3.17421 -9.1471,-1.49395 -4.5913,0.92915 -10.748,2.11646 -13.6813,2.63847 l -5.3333,0.9491 7.3333,3.80556 c 9.5076,4.93391 16.4724,5.15154 19.4496,0.60775 z"
     id="path4627"
     inkscape:connector-curvature="0" />
</svg>
